<?xml version="1.0" standalone="no"?>
<svg xmlns:xlink="http://www.w3.org/1999/xlink" id="wave" style="transform:rotate(180deg); transition: 0.3s" viewBox="0 0 1440 490" version="1.1" xmlns="http://www.w3.org/2000/svg"><defs><linearGradient id="sw-gradient-0" x1="0" x2="0" y1="1" y2="0"><stop stop-color="rgba(77.2, 62, 243, 1)" offset="0%"/><stop stop-color="rgba(42.033, 1.028, 116.543, 1)" offset="100%"/></linearGradient></defs><path style="transform:translate(0, 0px); opacity:1" fill="url(#sw-gradient-0)" d="M0,196L26.7,228.7C53.3,261,107,327,160,343C213.3,359,267,327,320,294C373.3,261,427,229,480,212.3C533.3,196,587,196,640,171.5C693.3,147,747,98,800,89.8C853.3,82,907,114,960,106.2C1013.3,98,1067,49,1120,49C1173.3,49,1227,98,1280,106.2C1333.3,114,1387,82,1440,81.7C1493.3,82,1547,114,1600,163.3C1653.3,212,1707,278,1760,302.2C1813.3,327,1867,310,1920,285.8C1973.3,261,2027,229,2080,220.5C2133.3,212,2187,229,2240,253.2C2293.3,278,2347,310,2400,326.7C2453.3,343,2507,343,2560,294C2613.3,245,2667,147,2720,163.3C2773.3,180,2827,310,2880,318.5C2933.3,327,2987,212,3040,204.2C3093.3,196,3147,294,3200,285.8C3253.3,278,3307,163,3360,138.8C3413.3,114,3467,180,3520,187.8C3573.3,196,3627,147,3680,155.2C3733.3,163,3787,229,3813,261.3L3840,294L3840,490L3813.3,490C3786.7,490,3733,490,3680,490C3626.7,490,3573,490,3520,490C3466.7,490,3413,490,3360,490C3306.7,490,3253,490,3200,490C3146.7,490,3093,490,3040,490C2986.7,490,2933,490,2880,490C2826.7,490,2773,490,2720,490C2666.7,490,2613,490,2560,490C2506.7,490,2453,490,2400,490C2346.7,490,2293,490,2240,490C2186.7,490,2133,490,2080,490C2026.7,490,1973,490,1920,490C1866.7,490,1813,490,1760,490C1706.7,490,1653,490,1600,490C1546.7,490,1493,490,1440,490C1386.7,490,1333,490,1280,490C1226.7,490,1173,490,1120,490C1066.7,490,1013,490,960,490C906.7,490,853,490,800,490C746.7,490,693,490,640,490C586.7,490,533,490,480,490C426.7,490,373,490,320,490C266.7,490,213,490,160,490C106.7,490,53,490,27,490L0,490Z"/><defs><linearGradient id="sw-gradient-1" x1="0" x2="0" y1="1" y2="0"><stop stop-color="rgba(67.752, 36.746, 178.016, 1)" offset="0%"/><stop stop-color="rgba(5.009, 5.812, 50.516, 1)" offset="100%"/></linearGradient></defs><path style="transform:translate(0, 50px); opacity:0.9" fill="url(#sw-gradient-1)" d="M0,147L26.7,122.5C53.3,98,107,49,160,32.7C213.3,16,267,33,320,81.7C373.3,131,427,212,480,245C533.3,278,587,261,640,245C693.3,229,747,212,800,171.5C853.3,131,907,65,960,106.2C1013.3,147,1067,294,1120,318.5C1173.3,343,1227,245,1280,187.8C1333.3,131,1387,114,1440,98C1493.3,82,1547,65,1600,89.8C1653.3,114,1707,180,1760,220.5C1813.3,261,1867,278,1920,277.7C1973.3,278,2027,261,2080,228.7C2133.3,196,2187,147,2240,171.5C2293.3,196,2347,294,2400,285.8C2453.3,278,2507,163,2560,106.2C2613.3,49,2667,49,2720,81.7C2773.3,114,2827,180,2880,187.8C2933.3,196,2987,147,3040,122.5C3093.3,98,3147,98,3200,81.7C3253.3,65,3307,33,3360,40.8C3413.3,49,3467,98,3520,171.5C3573.3,245,3627,343,3680,351.2C3733.3,359,3787,278,3813,236.8L3840,196L3840,490L3813.3,490C3786.7,490,3733,490,3680,490C3626.7,490,3573,490,3520,490C3466.7,490,3413,490,3360,490C3306.7,490,3253,490,3200,490C3146.7,490,3093,490,3040,490C2986.7,490,2933,490,2880,490C2826.7,490,2773,490,2720,490C2666.7,490,2613,490,2560,490C2506.7,490,2453,490,2400,490C2346.7,490,2293,490,2240,490C2186.7,490,2133,490,2080,490C2026.7,490,1973,490,1920,490C1866.7,490,1813,490,1760,490C1706.7,490,1653,490,1600,490C1546.7,490,1493,490,1440,490C1386.7,490,1333,490,1280,490C1226.7,490,1173,490,1120,490C1066.7,490,1013,490,960,490C906.7,490,853,490,800,490C746.7,490,693,490,640,490C586.7,490,533,490,480,490C426.7,490,373,490,320,490C266.7,490,213,490,160,490C106.7,490,53,490,27,490L0,490Z"/><defs><linearGradient id="sw-gradient-2" x1="0" x2="0" y1="1" y2="0"><stop stop-color="rgba(46.732, 69.721, 239.489, 1)" offset="0%"/><stop stop-color="rgba(12.466, 0.486, 55.07, 1)" offset="100%"/></linearGradient></defs><path style="transform:translate(0, 100px); opacity:0.8" fill="url(#sw-gradient-2)" d="M0,98L26.7,89.8C53.3,82,107,65,160,98C213.3,131,267,212,320,253.2C373.3,294,427,294,480,318.5C533.3,343,587,392,640,343C693.3,294,747,147,800,106.2C853.3,65,907,131,960,163.3C1013.3,196,1067,196,1120,163.3C1173.3,131,1227,65,1280,32.7C1333.3,0,1387,0,1440,40.8C1493.3,82,1547,163,1600,204.2C1653.3,245,1707,245,1760,253.2C1813.3,261,1867,278,1920,294C1973.3,310,2027,327,2080,310.3C2133.3,294,2187,245,2240,212.3C2293.3,180,2347,163,2400,163.3C2453.3,163,2507,180,2560,179.7C2613.3,180,2667,163,2720,163.3C2773.3,163,2827,180,2880,196C2933.3,212,2987,229,3040,228.7C3093.3,229,3147,212,3200,187.8C3253.3,163,3307,131,3360,171.5C3413.3,212,3467,327,3520,334.8C3573.3,343,3627,245,3680,187.8C3733.3,131,3787,114,3813,106.2L3840,98L3840,490L3813.3,490C3786.7,490,3733,490,3680,490C3626.7,490,3573,490,3520,490C3466.7,490,3413,490,3360,490C3306.7,490,3253,490,3200,490C3146.7,490,3093,490,3040,490C2986.7,490,2933,490,2880,490C2826.7,490,2773,490,2720,490C2666.7,490,2613,490,2560,490C2506.7,490,2453,490,2400,490C2346.7,490,2293,490,2240,490C2186.7,490,2133,490,2080,490C2026.7,490,1973,490,1920,490C1866.7,490,1813,490,1760,490C1706.7,490,1653,490,1600,490C1546.7,490,1493,490,1440,490C1386.7,490,1333,490,1280,490C1226.7,490,1173,490,1120,490C1066.7,490,1013,490,960,490C906.7,490,853,490,800,490C746.7,490,693,490,640,490C586.7,490,533,490,480,490C426.7,490,373,490,320,490C266.7,490,213,490,160,490C106.7,490,53,490,27,490L0,490Z"/><defs><linearGradient id="sw-gradient-3" x1="0" x2="0" y1="1" y2="0"><stop stop-color="rgba(146.848, 108.599, 241.766, 1)" offset="0%"/><stop stop-color="rgba(0, 6.296, 52.793, 1)" offset="100%"/></linearGradient></defs><path style="transform:translate(0, 150px); opacity:0.7" fill="url(#sw-gradient-3)" d="M0,343L26.7,343C53.3,343,107,343,160,334.8C213.3,327,267,310,320,261.3C373.3,212,427,131,480,122.5C533.3,114,587,180,640,236.8C693.3,294,747,343,800,334.8C853.3,327,907,261,960,196C1013.3,131,1067,65,1120,40.8C1173.3,16,1227,33,1280,73.5C1333.3,114,1387,180,1440,196C1493.3,212,1547,180,1600,155.2C1653.3,131,1707,114,1760,147C1813.3,180,1867,261,1920,277.7C1973.3,294,2027,245,2080,236.8C2133.3,229,2187,261,2240,302.2C2293.3,343,2347,392,2400,383.8C2453.3,376,2507,310,2560,277.7C2613.3,245,2667,245,2720,277.7C2773.3,310,2827,376,2880,383.8C2933.3,392,2987,343,3040,326.7C3093.3,310,3147,327,3200,343C3253.3,359,3307,376,3360,392C3413.3,408,3467,425,3520,392C3573.3,359,3627,278,3680,228.7C3733.3,180,3787,163,3813,155.2L3840,147L3840,490L3813.3,490C3786.7,490,3733,490,3680,490C3626.7,490,3573,490,3520,490C3466.7,490,3413,490,3360,490C3306.7,490,3253,490,3200,490C3146.7,490,3093,490,3040,490C2986.7,490,2933,490,2880,490C2826.7,490,2773,490,2720,490C2666.7,490,2613,490,2560,490C2506.7,490,2453,490,2400,490C2346.7,490,2293,490,2240,490C2186.7,490,2133,490,2080,490C2026.7,490,1973,490,1920,490C1866.7,490,1813,490,1760,490C1706.7,490,1653,490,1600,490C1546.7,490,1493,490,1440,490C1386.7,490,1333,490,1280,490C1226.7,490,1173,490,1120,490C1066.7,490,1013,490,960,490C906.7,490,853,490,800,490C746.7,490,693,490,640,490C586.7,490,533,490,480,490C426.7,490,373,490,320,490C266.7,490,213,490,160,490C106.7,490,53,490,27,490L0,490Z"/></svg>